<svg xmlns="http://www.w3.org/2000/svg" viewBox="0 0 418.28 144.3"><defs><style>.cls-1{fill:#114565;}.cls-2{fill:#6bebb6;}</style></defs><g id="Layer_2" data-name="Layer 2"><g id="Layer_1-2" data-name="Layer 1"><path class="cls-1" d="M164.64,88.18,176,79.25c3.21,5.54,8.3,8.75,14.11,8.75,6.34,0,9.73-4.1,9.73-8.57,0-5.36-6.52-7.05-13.48-9.2-8.75-2.68-18.49-6.07-18.49-18.57,0-10.45,9.11-18.76,21.7-18.76,10.63,0,16.7,4,22,9.47l-10.27,7.77A13.19,13.19,0,0,0,189.64,44c-5.8,0-8.93,3.13-8.93,7.24,0,5,6.25,6.7,13.22,9,8.84,2.86,18.84,6.79,18.84,19.29,0,10.36-8.21,20.36-22.59,20.36C178.39,99.88,170.53,94.88,164.64,88.18Z"/><path class="cls-1" d="M230.1,94.61v24.92H217.87V54.34H230.1v5.09a16.85,16.85,0,0,1,13.4-6c10.09,0,21.61,7.41,21.61,23.22s-12,23.22-21.43,23.22C237.78,99.88,233,97.92,230.1,94.61Zm23-18a11.69,11.69,0,0,0-12-12c-6.61,0-11.44,5.35-11.44,12s4.83,12.06,11.44,12.06A11.77,11.77,0,0,0,253.14,76.57Z"/><path class="cls-1" d="M268.77,76.66A23.14,23.14,0,1,1,291.9,99.88,23.1,23.1,0,0,1,268.77,76.66Zm34.39,0A11.46,11.46,0,0,0,291.9,65.05a11.62,11.62,0,0,0,0,23.22A11.46,11.46,0,0,0,303.16,76.66Z"/><path class="cls-1" d="M320,54.34h12.14v7.32c2.24-4.65,6.26-7.32,12.33-7.32h4.91V66.21h-7.77c-6.52,0-9.38,3.4-9.38,11.7V99H320Z"/><path class="cls-1" d="M354.87,37.63H367.1V49.87H354.87Zm0,16.71H367.1V99H354.87Z"/><path class="cls-1" d="M372.46,54.34h7.59V53.17c0-14.55,4.74-19.38,19.65-19.38h1V45.22c-7.5,0-8.39,1.08-8.39,8v1.08h8.39v11h-8.39V99H380.05V65.32h-7.59Z"/><path class="cls-1" d="M406,37.63h12.24V49.87H406Zm0,16.71h12.24V99H406Z"/><circle class="cls-2" cx="72.15" cy="72.15" r="72.15"/><path class="cls-1" d="M72.16,72.75c-18.56,0-30.81-7.84-31.79-8.49,1.71-6.7,3.53-13.58,7.61-19.17A29.29,29.29,0,0,1,69.73,33.48,32.39,32.39,0,0,1,93,42,36.26,36.26,0,0,1,104.29,64c-.15.11-.27.18-.27.18s-12.49,8.54-31.86,8.54"/><path class="cls-1" d="M73.06,71.33A61.51,61.51,0,0,1,55,68.71l-1.73-.55-.9-.3L52,67.73l-.21-.07c-1-.37-2-.76-3-1.18-1.5-.64-3-1.34-4.39-2.11-.75-.41-1.5-.83-2.21-1.3l.5.92c1.6-6.26,3.26-12.69,7-18.09a21.18,21.18,0,0,1,2.62-3.21q.75-.78,1.56-1.5l.75-.63.47-.37.36-.27c.53-.39,1.07-.76,1.63-1.11.33-.21.67-.41,1-.61l.34-.2.34-.18c.65-.33,1.3-.65,2-.93l.91-.38.55-.2c.23-.09.53-.22.14-.05a13.46,13.46,0,0,1,2.08-.62l1-.26c.16,0,.33-.08.49-.1-.65.08.21,0,.33-.05.68-.12,1.37-.21,2.06-.27.36,0,.72-.06,1.08-.08,0,0,.66,0,.33,0h.53c.76,0,1.53,0,2.29.08.35,0,.69,0,1,.09l.62.07.4.06a32.42,32.42,0,0,1,4.56,1.06,29.09,29.09,0,0,1,4,1.6,33.59,33.59,0,0,1,4.16,2.38,32,32,0,0,1,6.56,6,36.16,36.16,0,0,1,8,18.52l.88-1.42c-.49.33-1,.65-1.5.94l-.72.41-.34.19-.22.11c-.46.25.48-.24.14-.07-.73.37-1.46.74-2.21,1.09-.95.44-1.92.86-2.91,1.25l-1.46.56-.85.3c-.52.19.56-.18,0,0l-.6.2c-1.28.43-2.57.81-3.88,1.15-.7.18-1.41.35-2.12.51l-.92.2-.56.12-.38.07c.32-.06.35-.06.07,0q-2.72.49-5.47.78c-1,.1-2,.17-3,.23l-.67,0c.41,0-.45,0-.53,0l-1.61,0A3.65,3.65,0,0,0,70,72.65c-.57.94.48,1.52,1.31,1.52a69.84,69.84,0,0,0,20.5-3.06A61.43,61.43,0,0,0,103.85,66c.65-.37,1.3-.76,1.92-1.19a1.52,1.52,0,0,0,.88-1.41,37.87,37.87,0,0,0-7.2-17.71A34.37,34.37,0,0,0,83.87,34.14a33.94,33.94,0,0,0-20.33-1A32.48,32.48,0,0,0,47,43.42c-5,6-7.11,13.68-9,21.11a.87.87,0,0,0,.51.91,40.16,40.16,0,0,0,6.13,3.21,65,65,0,0,0,14.88,4.48,70.11,70.11,0,0,0,11.75,1,3.67,3.67,0,0,0,3.1-1.32c.57-.94-.48-1.52-1.31-1.52Z"/><path class="cls-2" d="M96.3,56.21A31.21,31.21,0,0,0,75.55,40.39a3.81,3.81,0,0,0-3.33.89,1,1,0,0,0,.49,1.83,27,27,0,0,1,8.73,3.6A28.76,28.76,0,0,1,88.58,53a27.2,27.2,0,0,1,3,4.46c.5.94,1.79.93,2.71.66a3.73,3.73,0,0,0,1.56-.82c.24-.24.64-.74.45-1.1Z"/><path class="cls-2" d="M69.89,48.5a24.35,24.35,0,0,1,16.7,13.11c.34.69,2,.23,2.55.08.3-.09,2.47-.73,2.17-1.35A25.43,25.43,0,0,0,73.77,46.69a5.63,5.63,0,0,0-3.29.61c-.39.18-1.64,1-.59,1.2Z"/><path class="cls-2" d="M67.61,53.93A23.46,23.46,0,0,1,81.69,65.17c.73,1.32,5.23-.33,4.72-1.27a24.93,24.93,0,0,0-15-12,4.71,4.71,0,0,0-3.32.54c-.44.25-1.59,1.15-.51,1.46Z"/><path class="cls-1" d="M65.84,72.75a199.61,199.61,0,0,0-3.79,22.82,15.89,15.89,0,0,0,0,5.15,6.84,6.84,0,0,0,3,4.42c2,1.22,4.59,1.5,7.06,1.5s5.11-.28,7.06-1.5a6.81,6.81,0,0,0,3-4.42,16.17,16.17,0,0,0,0-5.15,204.1,204.1,0,0,0-3.79-22.82"/><path class="cls-1" d="M63.47,73q-1.95,8.65-3.14,17.44a53.44,53.44,0,0,0-.84,8.83,8.54,8.54,0,0,0,3.27,6.81c2.13,1.62,5.09,2,7.69,2.11a20.14,20.14,0,0,0,8.87-1.35,9.16,9.16,0,0,0,5.22-6c.76-2.83.1-6-.25-8.86q-1.23-10-3.45-19.86c-.23-1.07-2-1-2.73-.79s-2.23,1-2,2q1.83,8.15,3,16.41c.39,2.73.82,5.5,1,8.26a10,10,0,0,1-.4,3.6,5.5,5.5,0,0,1-1.44,2.21c.27-.26-.3.22-.37.27a4.05,4.05,0,0,1-.35.21c.09,0,.38-.18,0,0s-.5.22-.75.31c.09,0,.47-.14,0,0l-.51.14-.41.09c-.36.1.39,0,0,0L75,105c-.63.07-1.27.1-1.9.12.36,0,0,0-.09,0h-.53c-.28,0-.57,0-.85,0-.61,0-1.21-.09-1.82-.17-.42-.06-.18,0-.09,0l-.41-.09c-.27-.06-.54-.13-.8-.21a4.71,4.71,0,0,1-1.4-.6,6.22,6.22,0,0,1-2.87-5.11,20.82,20.82,0,0,1,.23-4c.15-1.35.31-2.7.48-4q1.2-9.23,3.25-18.29c.25-1.1-1.36-1.4-2.11-1.31-1,.13-2.38.65-2.63,1.77Z"/></g></g></svg>